<?xml version="1.0" encoding="utf-8"?>
<svg id="SDE_LOGO" viewBox="0 0 153.11 231.19" xmlns="http://www.w3.org/2000/svg">
  <defs>
    <style>.cls-1,.cls-2{fill:#808284;}.cls-2,.cls-3{fill-rule:evenodd;}.cls-3{fill:#00788a;}</style>
  </defs>
  <title>sde-logo</title>
  <path class="cls-3" d="M107.93,231.19c-3.76-2.14-9.16-6-14.08-9.53a167.37,167.37,0,0,1-15-12.48,182.53,182.53,0,0,1-28.37-32.93c0.11-.66.78-1.27,1-1.91-1.77-1.29-2.6-3.5-4.43-4.68-1.08-4.15-5.28-8.65-5.56-12.34-3.47-2.83-3.67-6.07-4.28-8.8-0.64-.77-2-1.59-0.82-2.21,2.12,1.7,2.43,4.86,5.92,5.95,1.19-1.27-.56-2.81-0.25-4.15-4.73-11-8.6-22-10.66-32.78,1.2-.66,2.32-0.39,3.47-0.69,0.93,0.46-.48.72,0.31,1.17,0.8-.57,1.45.29,2.22,0.05,1.54-2.41-2.46-4.67-.2-7.15A31.56,31.56,0,0,1,34.6,98.23c-0.28-3.17.72-49-12.09-62.45-6.59-6.93-12.34-6.64-16.41-5.56C2.63,31.13.44,33.64,0,35.47,8.93,45.58,8,56.68,8.76,66.94c0.7,9.92.79,19.87,2.12,29.15A181.39,181.39,0,0,0,30.5,155.63c0.83,0,.43-1.28-0.43-1.89-2.34-6.69-7.85-13.64-7.13-20,1.94,1.53,2.53,3.71,3.34,5.58,2.44,5.6,5.28,11.59,8.36,17.44,1,0.22.29-1.67-.47-1.61-0.12-.59.37-1.11,0.15-1.7-4.37-8.08-9.12-16.83-10.52-25.05l-1.13-1c-1.63-6.38-3.36-12.77-4.58-19.1a1.85,1.85,0,0,0-1.13-1c0.75-3.59-1-7.41-.87-11.07a21.53,21.53,0,0,1,2.26,6.48c0.7,3,1,5.89,1.85,8.87s1.91,5.94,2.67,8.94c0.48,2,.31,4,0.89,5.93,1.83,6.12,5.47,11.89,7.3,18.06a0.88,0.88,0,0,1-.1,1.13c1.94,2.21,12.85,22.8,12.46,23.66-1,.8-0.52-1.22-1.58-0.43,6,9.31,21.57,31,41.08,47.09,5.28,4.6,16.06,11.06,25,15.18"/>
  <path class="cls-3" d="M50.27,72.28a7.48,7.48,0,0,0,2.88,10.16L54,82.9A7.48,7.48,0,0,0,64.13,80l38.23-68.46A7.48,7.48,0,0,0,99.48,1.4l-0.82-.45A7.47,7.47,0,0,0,88.5,3.83Z"/>
  <path class="cls-3" d="M74.7,86.29a7.48,7.48,0,0,0,2.88,10.16l0.82,0.46A7.48,7.48,0,0,0,88.56,94l38.23-68.46a7.48,7.48,0,0,0-2.88-10.16L123.09,15a7.47,7.47,0,0,0-10.16,2.88Z"/>
  <path class="cls-3" d="M99.13,99.76A7.48,7.48,0,0,0,102,109.93l0.82,0.46A7.48,7.48,0,0,0,113,107.5L151.21,39a7.48,7.48,0,0,0-2.88-10.16l-0.82-.45a7.47,7.47,0,0,0-10.16,2.88Z"/>
  <path class="cls-3" d="M99.93,154.6a7.48,7.48,0,0,0,2.88,10.16l0.82,0.45a7.48,7.48,0,0,0,10.16-2.88L152,93.88a7.48,7.48,0,0,0-2.88-10.16l-0.82-.45a7.48,7.48,0,0,0-10.16,2.88Z"/>
  <path class="cls-3" d="M117.47,154.77L86.6,137.53a7.48,7.48,0,0,0-10.16,2.88l-0.45.82a7.48,7.48,0,0,0,2.88,10.16l24.76,13.83"/>
</svg>
